<svg width="26" height="39" viewBox="0 0 26 39" fill="none" xmlns="http://www.w3.org/2000/svg">
<path d="M0.552 15.84L6.408 8.472H10.872L5.016 15.84H0.552ZM0.552 18V15.84L3.168 14.928H10.728V18H0.552ZM0.984 9.408V6.336H10.872V8.472L8.28 9.408H0.984ZM20.5547 18V11.352C20.5547 10.744 20.3627 10.256 19.9787 9.888C19.6107 9.504 19.1387 9.312 18.5627 9.312C18.1627 9.312 17.8107 9.4 17.5067 9.576C17.2027 9.736 16.9627 9.976 16.7867 10.296C16.6107 10.6 16.5227 10.952 16.5227 11.352L15.1067 10.656C15.1067 9.744 15.2987 8.944 15.6827 8.256C16.0667 7.568 16.6027 7.04 17.2907 6.672C17.9787 6.288 18.7707 6.096 19.6667 6.096C20.5787 6.096 21.3787 6.288 22.0667 6.672C22.7547 7.04 23.2827 7.56 23.6507 8.232C24.0347 8.888 24.2267 9.656 24.2267 10.536V18H20.5547ZM12.8507 18V0.576H16.5227V18H12.8507ZM9 38V31.352C9 30.744 8.808 30.256 8.424 29.888C8.056 29.504 7.584 29.312 7.008 29.312C6.608 29.312 6.256 29.4 5.952 29.576C5.648 29.736 5.408 29.976 5.232 30.296C5.056 30.6 4.968 30.952 4.968 31.352L3.552 30.656C3.552 29.744 3.744 28.944 4.128 28.256C4.512 27.568 5.048 27.04 5.736 26.672C6.424 26.288 7.216 26.096 8.112 26.096C9.024 26.096 9.824 26.288 10.512 26.672C11.2 27.04 11.728 27.56 12.096 28.232C12.48 28.888 12.672 29.656 12.672 30.536V38H9ZM1.296 38V20.576H4.968V38H1.296ZM20.2144 38.264C19.1424 38.264 18.1904 38.048 17.3584 37.616C16.5424 37.168 15.9024 36.56 15.4384 35.792C14.9744 35.008 14.7424 34.112 14.7424 33.104V26.336H18.4144V33.056C18.4144 33.456 18.4784 33.8 18.6064 34.088C18.7504 34.376 18.9584 34.6 19.2304 34.76C19.5024 34.92 19.8304 35 20.2144 35C20.7584 35 21.1904 34.832 21.5104 34.496C21.8304 34.144 21.9904 33.664 21.9904 33.056V26.336H25.6624V33.08C25.6624 34.104 25.4304 35.008 24.9664 35.792C24.5024 36.56 23.8624 37.168 23.0464 37.616C22.2304 38.048 21.2864 38.264 20.2144 38.264Z" fill="#1C1F23"/>
</svg>
