<svg width="18" height="15" viewBox="0 0 18 15" fill="none" xmlns="http://www.w3.org/2000/svg">
<g clip-path="url(#clip0_676_62203)">
<path fill-rule="evenodd" clip-rule="evenodd" d="M8.41666 5C8.41666 4.65482 8.69648 4.375 9.04166 4.375H15.4494L12.7664 1.69194C12.5223 1.44786 12.5223 1.05214 12.7664 0.808059C13.0105 0.563981 13.4062 0.563981 13.6503 0.808059L17.4003 4.55806C17.6443 4.80214 17.6443 5.19786 17.4003 5.44194L13.6503 9.19194C13.4062 9.43602 13.0105 9.43602 12.7664 9.19194C12.5223 8.94786 12.5223 8.55214 12.7664 8.30806L15.4494 5.625H9.04166C8.69648 5.625 8.41666 5.34518 8.41666 5Z" fill="#F9F9F9"/>
</g>
<g clip-path="url(#clip1_676_62203)">
<path fill-rule="evenodd" clip-rule="evenodd" d="M9.58334 10C9.58334 10.3452 9.30352 10.625 8.95834 10.625H2.55056L5.23362 13.3081C5.4777 13.5521 5.4777 13.9479 5.23362 14.1919C4.98954 14.436 4.59381 14.436 4.34973 14.1919L0.599735 10.4419C0.355658 10.1979 0.355658 9.80214 0.599735 9.55806L4.34973 5.80806C4.59381 5.56398 4.98954 5.56398 5.23362 5.80806C5.4777 6.05214 5.4777 6.44786 5.23362 6.69194L2.55056 9.375L8.95834 9.375C9.30352 9.375 9.58334 9.65482 9.58334 10Z" fill="#F9F9F9"/>
</g>
<defs>
<clipPath id="clip0_676_62203">
<rect width="10" height="10" fill="white" transform="translate(8)"/>
</clipPath>
<clipPath id="clip1_676_62203">
<rect width="10" height="10" fill="white" transform="translate(10 15) rotate(-180)"/>
</clipPath>
</defs>
</svg>
